<svg xmlns="http://www.w3.org/2000/svg" viewBox="0 0 50 50"><defs><style>.cls-1{fill:#fff;}</style></defs><title>clear</title><g id="Layer_2" data-name="Layer 2"><g id="Layer_1-2" data-name="Layer 1"><path class="cls-1" d="M25.27,37.63a12.9,12.9,0,1,0-12.9-12.9A12.91,12.91,0,0,0,25.27,37.63Zm0-24.19A11.29,11.29,0,1,1,14,24.73,11.31,11.31,0,0,1,25.27,13.44Z"/><path class="cls-1" d="M24.19,8.06a.8.8,0,0,0,.81-.8V.81a.81.81,0,1,0-1.61,0V7.26A.8.8,0,0,0,24.19,8.06Z"/><path class="cls-1" d="M25,49.19V42.74a.81.81,0,0,0-1.61,0v6.45a.81.81,0,1,0,1.61,0Z"/><path class="cls-1" d="M8.06,25.81a.8.8,0,0,0-.8-.81H.81a.81.81,0,1,0,0,1.61H7.26A.8.8,0,0,0,8.06,25.81Z"/><path class="cls-1" d="M49.19,25H42.74a.81.81,0,0,0,0,1.61h6.45a.81.81,0,1,0,0-1.61Z"/><path class="cls-1" d="M9,42.41l4.56-4.56a.81.81,0,0,0-1.14-1.14L7.86,41.27A.81.81,0,1,0,9,42.41Z"/><path class="cls-1" d="M38.08,13a.81.81,0,0,0,.57-.23l4.57-4.57a.81.81,0,0,0,0-1.14.83.83,0,0,0-1.15,0l-4.56,4.57a.81.81,0,0,0,0,1.14A.85.85,0,0,0,38.08,13Z"/><path class="cls-1" d="M38.65,36.71a.8.8,0,0,0-1.14,0,.81.81,0,0,0,0,1.14l4.56,4.56a.81.81,0,0,0,1.15-1.14Z"/><path class="cls-1" d="M12.42,12.76A.85.85,0,0,0,13,13a.83.83,0,0,0,.57-.23.8.8,0,0,0,0-1.14L9,7.05a.81.81,0,0,0-1.14,0,.8.8,0,0,0,0,1.14Z"/></g></g></svg>