<svg xmlns="http://www.w3.org/2000/svg" viewBox="0 0 50 39.99"><defs><style>.cls-1{fill:#fff;}</style></defs><title>partialNight</title><g id="Layer_2" data-name="Layer 2"><g id="Layer_1-2" data-name="Layer 1"><path class="cls-1" d="M11.57,40H36.83A11.57,11.57,0,0,0,46,21.3,12.21,12.21,0,0,0,37.76,0,12.3,12.3,0,0,0,26.19,8.34a11.53,11.53,0,0,0-11.11,9,11.35,11.35,0,0,0-3.51-.56,11.62,11.62,0,0,0,0,23.24ZM37.76,2.1A10.15,10.15,0,0,1,47.9,12.24a10,10,0,0,1-3.38,7.52,11.42,11.42,0,0,0-7.07-3,11.63,11.63,0,0,0-9.08-8.24A10.18,10.18,0,0,1,37.76,2.1ZM11.57,18.86a9.39,9.39,0,0,1,3.9.85,1,1,0,0,0,1,0,1.07,1.07,0,0,0,.53-.8A9.44,9.44,0,0,1,35.59,18a1.06,1.06,0,0,0,1,.85l.21,0a9.51,9.51,0,0,1,0,19H11.57a9.51,9.51,0,0,1,0-19Z"/></g></g></svg>