<svg xmlns="http://www.w3.org/2000/svg" viewBox="0 0 50 40.87"><defs><style>.cls-1{fill:#fff;}</style></defs><title>partial</title><g id="Layer_2" data-name="Layer 2"><g id="Layer_1-2" data-name="Layer 1"><path class="cls-1" d="M30.87,5.22a.87.87,0,0,0,.87-.87V.87A.87.87,0,1,0,30,.87V4.35A.87.87,0,0,0,30.87,5.22Z"/><path class="cls-1" d="M49.13,18.26H45.65a.87.87,0,0,0,0,1.74h3.48a.87.87,0,0,0,0-1.74Z"/><path class="cls-1" d="M30.43,40.87A9.76,9.76,0,0,0,37.9,25.06,10.1,10.1,0,1,0,21.64,14.28a9.54,9.54,0,0,0-9.18,7.41,9.49,9.49,0,0,0-2.89-.46,9.82,9.82,0,0,0,0,19.64Zm.78-31.74a8.36,8.36,0,0,1,5.52,14.65A9.34,9.34,0,0,0,31,21.25a9.61,9.61,0,0,0-7.51-6.81A8.41,8.41,0,0,1,31.21,9.13ZM1.74,31.05A8.06,8.06,0,0,1,9.57,23a7.76,7.76,0,0,1,3.21.71.88.88,0,0,0,.79,0A.85.85,0,0,0,14,23a7.8,7.8,0,0,1,15.41-.69.87.87,0,0,0,.85.7l.17,0a8.08,8.08,0,0,1,0,16.16H9.57A8.06,8.06,0,0,1,1.74,31.05Z"/><path class="cls-1" d="M20.24,9.16a.87.87,0,0,0,.61.26.89.89,0,0,0,.62-.26.87.87,0,0,0,0-1.23L19,5.47A.87.87,0,0,0,17.78,6.7Z"/><path class="cls-1" d="M41.76,9.42a.87.87,0,0,0,.61-.26L44.83,6.7A.87.87,0,1,0,43.6,5.47L41.14,7.93a.88.88,0,0,0,.62,1.49Z"/><path class="cls-1" d="M42.14,27.59l2.46,2.46a.87.87,0,1,0,1.23-1.23l-2.46-2.46a.87.87,0,1,0-1.23,1.23Z"/></g></g></svg>