<svg xmlns="http://www.w3.org/2000/svg" viewBox="0 0 50 49.46"><defs><style>.cls-1{fill:#fff;}</style></defs><title>Rain</title><g id="Layer_2" data-name="Layer 2"><g id="Layer_1-2" data-name="Layer 1"><path class="cls-1" d="M12,35.33H38c6.85,0,12-7,12-13.32,0-6.09-4.8-12.87-11.32-13.29a11.92,11.92,0,0,0-23.1.55A11.8,11.8,0,0,0,12,8.7C5.11,8.7,0,15.73,0,22S5.11,35.33,12,35.33Zm0-24.46a9.67,9.67,0,0,1,4,.89,1.09,1.09,0,0,0,1,0,1.08,1.08,0,0,0,.55-.83A9.75,9.75,0,0,1,36.76,10a1.12,1.12,0,0,0,1.1.87l.18,0c5.51,0,9.79,6,9.79,11.14S43.55,33.15,38,33.15H12c-5.51,0-9.79-6-9.79-11.14S6.45,10.87,12,10.87Z"/><path class="cls-1" d="M14.13,39.67v8.7a1.09,1.09,0,1,0,2.17,0v-8.7a1.09,1.09,0,0,0-2.17,0Z"/><path class="cls-1" d="M27.17,39.67v8.7a1.09,1.09,0,0,0,2.18,0v-8.7a1.09,1.09,0,0,0-2.18,0Z"/><path class="cls-1" d="M20.65,39.67V44a1.09,1.09,0,1,0,2.18,0V39.67a1.09,1.09,0,0,0-2.18,0Z"/><path class="cls-1" d="M33.7,39.67V44a1.09,1.09,0,1,0,2.17,0V39.67a1.09,1.09,0,0,0-2.17,0Z"/></g></g></svg>