<svg xmlns="http://www.w3.org/2000/svg" viewBox="0 0 50 48.91"><defs><style>.cls-1{fill:#fff;}</style></defs><title>snow</title><g id="Layer_2" data-name="Layer 2"><g id="Layer_1-2" data-name="Layer 1"><path class="cls-1" d="M12,34.78H38c6.37,0,12-6.09,12-13,0-6.72-5.22-12.63-11.32-13a11.92,11.92,0,0,0-23.1.55A11.8,11.8,0,0,0,12,8.7c-6.37,0-12,6.09-12,13S5.59,34.78,12,34.78Zm0-23.91a9.67,9.67,0,0,1,4,.89,1.09,1.09,0,0,0,1,0,1.08,1.08,0,0,0,.55-.82A9.75,9.75,0,0,1,36.76,10a1.1,1.1,0,0,0,1.1.87l.18,0c5.6,0,9.79,5.74,9.79,10.87S43.64,32.61,38,32.61H12c-5.6,0-9.79-5.74-9.79-10.87S6.36,10.87,12,10.87Z"/><circle class="cls-1" cx="18.48" cy="43.48" r="1.09"/><circle class="cls-1" cx="29.35" cy="43.48" r="1.09"/><circle class="cls-1" cx="25" cy="39.13" r="1.09"/><circle class="cls-1" cx="35.87" cy="39.13" r="1.09"/><circle class="cls-1" cx="22.83" cy="47.83" r="1.09"/><circle class="cls-1" cx="14.13" cy="39.13" r="1.09"/></g></g></svg>