<svg id="Layer_1" data-name="Layer 1" xmlns="http://www.w3.org/2000/svg" viewBox="0 0 50.94 50.94"><defs><style>.cls-1{fill:#fff;}</style></defs><title>wind</title><path class="cls-1" d="M24.58,28.25a.92.92,0,0,0-.92-.92H1.4a.93.93,0,1,0,0,1.85H23.66A.92.92,0,0,0,24.58,28.25Z"/><path class="cls-1" d="M40.15,14.34a.93.93,0,0,0,0,1.86c4.43,0,8.47,4.42,8.47,9.27,0,4.38-3.57,9.28-8.35,9.28H18.09a.93.93,0,1,0,0,1.85H40.27c5.43,0,10.2-5.2,10.2-11.13S45.55,14.34,40.15,14.34Z"/><path class="cls-1" d="M31.83,32.89c3.37,0,6-3.74,6-6.95a6.18,6.18,0,0,0-5.94-6.26.93.93,0,1,0,0,1.85A4.31,4.31,0,0,1,36,25.94c0,2.29-1.91,5.1-4.13,5.1h-23a.93.93,0,1,0,0,1.85Z"/></svg>