<svg xmlns="http://www.w3.org/2000/svg" viewBox="0 0 50 22.26"><defs><style>.cls-1{fill:#fff;}</style></defs><title>wind</title><g id="Layer_2" data-name="Layer 2"><g id="Layer_1-2" data-name="Layer 1"><path class="cls-1" d="M24.11,13.91a.93.93,0,0,0-.93-.93H.93a.93.93,0,0,0,0,1.86H23.18A.93.93,0,0,0,24.11,13.91Z"/><path class="cls-1" d="M39.68,0a.92.92,0,0,0-.92.93.92.92,0,0,0,.92.92c4.43,0,8.47,4.43,8.47,9.28,0,4.38-3.57,9.27-8.35,9.27H17.62a.93.93,0,0,0,0,1.86H39.8c5.43,0,10.2-5.2,10.2-11.13S45.08,0,39.68,0Z"/><path class="cls-1" d="M31.35,18.55c3.38,0,6-3.74,6-7A6.19,6.19,0,0,0,31.4,5.33a.93.93,0,1,0,0,1.86,4.31,4.31,0,0,1,4.09,4.4c0,2.3-1.91,5.1-4.14,5.1h-23a.93.93,0,1,0,0,1.86Z"/></g></g></svg>